# xmcd CD database file
#
# Track frame offsets:
#	150
#	9515
#	19444
#	30230
#	40821
#	54403
#	64126
#	76242
#	86311
#	97513
#	109575
#	123321
#	135204
#	145295
#	154796
#	165041
#
# Disc length: 2354 seconds
#
# Revision: 1
# Processed by: cddbd v1.4PL0 Copyright (c) Steve Scherf et al.
# Submitted via: jetAudio 5
#
DISCID=ab093010
DTITLE=Various Country Artists - That Crazy Country
DYEAR=1900
DGENRE=
TTITLE0=Let's Think About Livin'
TTITLE1=I've Got A Tiger By The Tail
TTITLE2=Act Naturally
TTITLE3=He'll Have To Go
TTITLE4=Coal Miner's Daughter
TTITLE5=Don't Come Home a Drinkin' (With Lovin' On Your Mind)
TTITLE6=Another Man Loved Me Last Night
TTITLE7=Fist City
TTITLE8=I'm The Other Woman
TTITLE9=One's On The Way
TTITLE10=Somebody, Somewhere Don't Know He's Missing Tonight
TTITLE11=The Pill
TTITLE12=You Ain't Woman Enough To Take My Man
TTITLE13=Your Squaw Is On The Warpath Tonight
TTITLE14=You're Lookin' At Country
TTITLE15=You're The Reason Our Kids Are Ugly
EXTD=
EXTT0=
EXTT1=
EXTT2=
EXTT3=
EXTT4=
EXTT5=
EXTT6=
EXTT7=
EXTT8=
EXTT9=
EXTT10=
EXTT11=
EXTT12=
EXTT13=
EXTT14=
EXTT15=
PLAYORDER=
